<?xml version="1.0" encoding="utf-8"?>
<!-- Generator: Adobe Illustrator 23.0.6, SVG Export Plug-In . SVG Version: 6.00 Build 0)  -->
<svg version="1.1" xmlns="http://www.w3.org/2000/svg" xmlns:xlink="http://www.w3.org/1999/xlink" x="0px" y="0px"
	 viewBox="773 -1175 354 450" style="enable-background:new 0 0 1900 1900;" xml:space="preserve">
<style type="text/css">
	.st0{fill-rule:evenodd;clip-rule:evenodd;fill:#FFFFFF;}
	.st1{fill-rule:evenodd;clip-rule:evenodd;fill:#030305;}
	.st2{fill-rule:evenodd;clip-rule:evenodd;fill:#EAE014;}
</style>
<g id="New_Layer">
	<g>
		<g>
			<path class="st0" d="M1022.33-922.76c-10.21,0-20.07-2.04-23.84-2.92l-2.33-0.54l28.23-39.49l-63.04,11.37l8.51-18.77
				c-6.27,2.22-14.43,4.37-22.62,4.37c-4.85,0-9.97-0.74-15.24-2.21l-29.5,41.26l-0.53,0.16c-3.65,1.08-10.83,2.89-17.92,2.89
				c-4.15,0-7.73-0.62-10.67-1.84c-11.28-4.7-16.21-17.64-17.59-22.03c-1.92,0.33-5.53,0.82-9.8,0.82c-8.51,0-15.22-1.91-19.93-5.68
				c-9.61-7.69-8.06-21.38-7.25-25.83c-4.71-1.82-20.32-8.66-25.65-20.85c-2.51-5.75-2.37-11.86,0.43-18.16
				c7.68-17.29,27.03-20.92,41.91-20.92c8.47,0,15.55,1.16,18.52,1.72c1.77-5.88,9.48-26.88,30.66-31.69
				c4.51-1.03,9.11-1.55,13.68-1.55c9.24,0,16.03,2.09,18.91,3.17c2.2-4.57,10.1-18.03,27.93-21c1.76-0.29,3.54-0.44,5.3-0.44
				c14.75,0,25.08,10.1,27.85,13.13c7.28-3.67,15.08-5.6,22.68-5.6c1.03,0,2.06,0.04,3.08,0.1c1.3,0.09,2.6,0.23,3.85,0.43
				c5.56,0.87,10.61,2.53,15.02,4.93c11.73,6.4,15.79,16.22,16.89,19.63c4.44,0.25,19.91,1.83,29.44,12.04
				c12.83,13.74,8.33,29.93,6.34,35.23c7.65,2.27,36.66,12.66,32.47,38.65c-2.73,16.9-15.07,26.22-34.75,26.22h0
				c-5.16,0-9.39-0.65-11.41-1.03c-1.87,3.76-8.42,15.33-20.5,20.96C1036.52-923.92,1030.09-922.76,1022.33-922.76"/>
			<path class="st1" d="M950.51-1092.52L950.51-1092.52c-1.85,0-3.72,0.16-5.57,0.46c-17.07,2.85-25.43,14.96-28.45,20.61
				c-3.5-1.17-9.88-2.8-18.12-2.8c-4.68,0-9.4,0.53-14.03,1.59c-20.56,4.67-28.9,23.95-31.4,31.43c-3.55-0.61-9.96-1.5-17.43-1.5
				c-22.01,0-37.01,7.56-43.37,21.87c-2.99,6.73-3.14,13.27-0.43,19.45c5.17,11.82,19.42,18.76,25.33,21.21
				c-0.82,5.67-1.42,18.51,8.03,26.07c5.01,4,12.05,6.03,20.93,6.03c3.51,0,6.6-0.33,8.71-0.63c1.91,5.46,7.16,17.18,18.06,21.72
				c3.13,1.31,6.93,1.97,11.29,1.97c7.28,0,14.64-1.85,18.37-2.96l1.06-0.31l0.64-0.9l28.53-39.9c5.03,1.31,9.92,1.97,14.58,1.97
				c6.95,0,13.85-1.49,19.65-3.29l-5.74,12.66l-2.52,5.55l6-1.08l56.16-10.13l-24.55,34.34l-2.78,3.89l4.66,1.08
				c3.82,0.89,13.83,2.96,24.2,2.96c7.99,0,14.66-1.22,19.8-3.62c11.52-5.38,18.19-15.94,20.7-20.64c2.34,0.38,6.1,0.85,10.53,0.85
				c20.56,0,33.46-9.79,36.33-27.56c2.1-13.04-3.5-24.31-16.21-32.59c-5.92-3.86-12.03-6.18-15.75-7.37
				c0.74-2.26,1.57-5.47,1.86-9.24c0.77-9.82-2.38-18.82-9.12-26.03c-9.25-9.91-23.78-12.02-29.45-12.47
				c-1.58-4.29-6.11-13.42-17.28-19.51c-4.57-2.49-9.8-4.21-15.54-5.11c-1.3-0.2-2.64-0.35-3.99-0.44
				c-1.05-0.07-2.12-0.11-3.18-0.11c-7.48,0-15.13,1.81-22.33,5.25C974.9-1083.64,964.66-1092.52,950.51-1092.52z M950.51-1089.32
				c16.43,0,27.34,13.38,27.34,13.38l-0.65,0.58c7.27-4.03,15.46-6.43,23.84-6.43c0.99,0,1.98,0.03,2.97,0.1
				c1.23,0.08,2.47,0.22,3.71,0.41c5.84,0.91,10.61,2.63,14.5,4.76c13.62,7.43,16.43,19.78,16.43,19.78s18.85,0.18,29.49,11.58
				c14.93,16,5.33,35.2,5.33,35.2s37.68,8.73,33.07,37.33c-3.4,21.05-20.9,24.87-33.17,24.87c-7.01,0-12.32-1.25-12.32-1.25
				s-6.43,14.88-20.27,21.33c-5.33,2.49-11.97,3.32-18.45,3.32c-9.99,0-19.6-1.97-23.48-2.87l29.13-40.75l-63.92,11.53l8.85-19.52
				c-6.88,2.76-16.27,5.63-25.68,5.63c-5.64,0-11.07-1.03-15.88-2.45l-29.83,41.73c-3.7,1.09-10.63,2.83-17.47,2.83
				c-3.53,0-7.04-0.46-10.05-1.72c-12.8-5.33-17.07-22.4-17.07-22.4s-4.8,1.07-10.93,1.07c-6.13,0-13.6-1.07-18.93-5.33
				c-10.67-8.53-6.4-25.6-6.4-25.6s-36.64-12.48-25.6-37.33c7.31-16.44,25.86-19.97,40.44-19.97c10.96,0,19.67,1.99,19.67,1.99
				s6.4-26.67,29.87-32c4.82-1.09,9.31-1.51,13.32-1.51c11.96,0,19.74,3.64,19.74,3.64s6.92-18.08,27.35-21.49
				C947.2-1089.19,948.88-1089.32,950.51-1089.32"/>
			<path class="st2" d="M1021.45-1078.71c-4.03-1.98-8.56-3.37-13.49-4.14c-0.35-0.05-0.7-0.11-1.05-0.15l45.02-62.98
				L1021.45-1078.71"/>
			<path class="st1" d="M1060.14-1160.21l-56.14,78.52c1.23,0.08,2.47,0.22,3.71,0.41c5.84,0.91,10.61,2.63,14.5,4.76
				L1060.14-1160.21z M1043.73-1131.76l-23.07,50.91c-3.36-1.49-7.03-2.61-10.94-3.33L1043.73-1131.76"/>
			<path class="st2" d="M944.37-911.45l-63.04,11.37L932-970.95c5.27,1.46,10.39,2.21,15.24,2.21c8.19,0,16.35-2.14,22.62-4.37
				l-8.51,18.77l63.04-11.37l-151.4,211.77L944.37-911.45"/>
			<path class="st1" d="M972.92-975.97c-6.88,2.76-16.27,5.63-25.68,5.63c-5.64,0-11.07-1.03-15.88-2.45l-29.83,41.73l-23.78,33.26
				l63.92-11.53l-76.87,169.62l134.07-187.52l29.13-40.75l-63.92,11.53L972.92-975.97z M966.89-970.43l-5.74,12.66l-2.52,5.55
				l6-1.08l56.16-10.13l-24.55,34.34L881.19-768.16l63.38-139.85l2.52-5.55l-6,1.08l-56.16,10.13l19.2-26.85l28.53-39.9
				c5.03,1.31,9.92,1.97,14.58,1.97C954.18-967.14,961.09-968.64,966.89-970.43"/>
			<path class="st1" d="M912.22-978.11c0.06,0.04,4.13,2.75,10.53,5.47c6.4,2.72,15.11,5.46,24.49,5.46
				c9.38-0.01,18.6-2.74,25.52-5.44c6.91-2.71,11.51-5.41,11.56-5.44c0.76-0.45,1.02-1.43,0.57-2.19c-0.45-0.76-1.43-1.02-2.19-0.57
				l-0.04,0.03c-0.49,0.28-5.09,2.91-11.7,5.44c-6.61,2.54-15.23,4.98-23.71,4.98c-8.75,0-17.1-2.59-23.24-5.21
				c-3.07-1.31-5.59-2.61-7.33-3.59c-0.87-0.49-1.55-0.89-2-1.17c-0.23-0.14-0.4-0.25-0.51-0.32l-0.13-0.08l-0.04-0.02
				c-0.74-0.49-1.73-0.29-2.22,0.44C911.28-979.59,911.48-978.6,912.22-978.11"/>
			<path class="st1" d="M959.44-1059.34L959.44-1059.34c0.1-0.17,6.37-9.89,19.67-17.05c0.78-0.42,1.07-1.39,0.65-2.17
				c-0.42-0.78-1.39-1.07-2.17-0.65c-14.22,7.66-20.77,18.02-20.86,18.16c-0.47,0.75-0.25,1.73,0.5,2.21
				C957.98-1058.37,958.97-1058.6,959.44-1059.34"/>
		</g>
	</g>
</g>
<g id="MasterLayer_1">
</g>
</svg>
